<svg width="150" height="65" viewBox="0 0 150 65" fill="none" xmlns="http://www.w3.org/2000/svg">
<path d="M33.961 57.7656L0 38.7583C4.18613 31.7296 13.3668 29.2707 20.5056 33.2661L54.4667 52.2735C50.2805 59.3021 41.0998 61.761 33.961 57.7656Z" fill="url(#paint0_linear)"/>
<path d="M33.2331 50.5086L8.22925 21.6222C14.6428 16.4053 24.2282 17.2435 29.6389 23.4944L54.6428 52.3808C48.2292 57.5977 38.6438 56.7595 33.2331 50.5086Z" fill="url(#paint1_linear)"/>
<path d="M34.8637 43.1416L21.6562 7.96521C29.5236 5.18937 38.2786 9.27061 41.2111 17.0809L54.4185 52.2574C46.5511 55.0332 37.7961 50.9519 34.8637 43.1416Z" fill="url(#paint2_linear)"/>
<path d="M39.4143 37.3241V0C47.7866 0 54.5736 6.78706 54.5736 15.1593V52.4834C46.2014 52.4834 39.4143 45.6963 39.4143 37.3241Z" fill="url(#paint3_linear)"/>
<path d="M73.554 32.6378H76.3811V47.7404C76.3811 49.7814 75.7659 51.3781 74.5354 52.5304C73.3147 53.6827 71.6838 54.2589 69.6428 54.2589C67.5237 54.2589 65.8733 53.7169 64.6917 52.6329C63.51 51.549 62.9192 50.0304 62.9192 48.0773H65.7317C65.7317 49.298 66.0637 50.2501 66.7278 50.9337C67.4016 51.6173 68.3733 51.9591 69.6428 51.9591C70.8049 51.9591 71.7424 51.5929 72.4553 50.8605C73.178 50.1281 73.5442 49.1027 73.554 47.7843V32.6378ZM97.5774 43.9904C97.5774 46.0802 97.2258 47.9064 96.5227 49.4689C95.8196 51.0216 94.8235 52.2081 93.5344 53.0284C92.2454 53.8488 90.7415 54.2589 89.0227 54.2589C87.343 54.2589 85.8538 53.8488 84.5549 53.0284C83.2561 52.1984 82.2454 51.0216 81.5227 49.4982C80.8098 47.965 80.4436 46.1925 80.4241 44.1808V42.6427C80.4241 40.5919 80.7805 38.7804 81.4934 37.2081C82.2063 35.6359 83.2122 34.4347 84.511 33.6046C85.8196 32.7648 87.3137 32.3448 88.9934 32.3448C90.7024 32.3448 92.2063 32.7599 93.5051 33.59C94.8137 34.4103 95.8196 35.6066 96.5227 37.1788C97.2258 38.7413 97.5774 40.5626 97.5774 42.6427V43.9904ZM94.7795 42.6134C94.7795 40.0841 94.2717 38.1456 93.2561 36.798C92.2405 35.4406 90.8196 34.7618 88.9934 34.7618C87.2161 34.7618 85.8147 35.4406 84.7893 36.798C83.7737 38.1456 83.2512 40.0206 83.2219 42.423V43.9904C83.2219 46.4415 83.7346 48.3702 84.76 49.7765C85.7952 51.173 87.2161 51.8712 89.0227 51.8712C90.8391 51.8712 92.2454 51.212 93.2415 49.8937C94.2375 48.5656 94.7502 46.6661 94.7795 44.1954V42.6134ZM101.796 53.9659V32.6378H108.769C111.083 32.6378 112.822 33.1163 113.984 34.0734C115.156 35.0304 115.741 36.4464 115.741 38.3214C115.741 39.3175 115.458 40.2013 114.892 40.9728C114.325 41.7345 113.554 42.3253 112.577 42.7452C113.73 43.0675 114.638 43.6827 115.302 44.5909C115.976 45.4894 116.313 46.5636 116.313 47.8136C116.313 49.7277 115.693 51.2316 114.452 52.3253C113.212 53.4191 111.459 53.9659 109.194 53.9659H101.796ZM104.609 43.9904V51.6661H109.252C110.561 51.6661 111.591 51.3292 112.343 50.6554C113.105 49.9718 113.486 49.0343 113.486 47.8429C113.486 45.2745 112.089 43.9904 109.296 43.9904H104.609ZM104.609 41.7345H108.857C110.087 41.7345 111.069 41.4269 111.801 40.8116C112.543 40.1964 112.914 39.3615 112.914 38.3068C112.914 37.1349 112.573 36.2853 111.889 35.7579C111.205 35.2208 110.165 34.9523 108.769 34.9523H104.609V41.7345ZM123.505 53.9659H120.693V32.6378H123.505V53.9659ZM140.717 44.1075H131.474V51.6661H142.211V53.9659H128.661V32.6378H142.065V34.9523H131.474V41.8077H140.717V44.1075Z" fill="#E7ECF2"/>
<defs>
<linearGradient id="paint0_linear" x1="8.22935" y1="45.3456" x2="56.6288" y2="35.7613" gradientUnits="userSpaceOnUse">
<stop stop-color="#EC7063"/>
<stop offset="0.424678" stop-color="#B63E3B"/>
<stop offset="0.58054" stop-color="#34495E"/>
</linearGradient>
<linearGradient id="paint1_linear" x1="16.6752" y1="33.5894" x2="40.2804" y2="33.5894" gradientUnits="userSpaceOnUse">
<stop stop-color="#EC7063"/>
<stop offset="0.736455" stop-color="#B63E3B"/>
<stop offset="1" stop-color="#34495E"/>
</linearGradient>
<linearGradient id="paint2_linear" x1="26.4206" y1="22.4629" x2="52.9167" y2="30.6849" gradientUnits="userSpaceOnUse">
<stop stop-color="#EC7063"/>
<stop offset="0.599543" stop-color="#B63E3B"/>
<stop offset="1" stop-color="#34495E"/>
</linearGradient>
<linearGradient id="paint3_linear" x1="38.5481" y1="17.0046" x2="63.0369" y2="32.1618" gradientUnits="userSpaceOnUse">
<stop stop-color="#EC7063"/>
<stop offset="0.553591" stop-color="#B63E3B"/>
<stop offset="1" stop-color="#34495E"/>
</linearGradient>
</defs>
</svg>
